<svg id="Layer_1" data-name="Layer 1"
    xmlns="http://www.w3.org/2000/svg" viewBox="0 0 137 137">
    <defs>
        <style>.cls-1{fill:#4391ea;}</style>
    </defs>
    <g id="Layer_2" data-name="Layer 2">
        <g id="Layer_1-2" data-name="Layer 1-2">
            <path class="cls-1" d="M127,0H10A10,10,0,0,0,0,10V127a10,10,0,0,0,10,10H127a10,10,0,0,0,10-10V10A10,10,0,0,0,127,0ZM111,44.3A65.17,65.17,0,0,0,67.7,60.8c-.2.2-.5.4-.8.7l4.9,5a5.35,5.35,0,0,1,.8-.7A58,58,0,0,1,111,51.3v6.6A51.59,51.59,0,0,0,77.3,70.5a4.84,4.84,0,0,0-.8.7l5,5c.2-.2.5-.4.8-.7A44.22,44.22,0,0,1,111,65v6.4a38.09,38.09,0,0,0-24.2,8.7c-.3.2-.5.4-.8.6l5,5a6.68,6.68,0,0,1,.8-.6A31.47,31.47,0,0,1,111,78.4v6.1a22.22,22.22,0,0,0-14.4,5.3,4.63,4.63,0,0,0-.7.7l4.9,4.9a6.68,6.68,0,0,1,.8-.6,14.94,14.94,0,0,1,9.4-3.3v21.1H25.4c1-87.7,85.5-89.1,85.5-89.1v6.8A78.54,78.54,0,0,0,57.8,50.9l-.7.7,5,5,.7-.7A71.92,71.92,0,0,1,111,37.4Z" transform="translate(0 0)"/>
        </g>
    </g>
</svg>